<svg width="18" height="19" viewBox="0 0 18 19" fill="none" xmlns="http://www.w3.org/2000/svg">
<g clip-path="url(#clip0_2_181)">
<path d="M9 0.5C4.0294 0.5 0 4.5294 0 9.5C0 14.4706 4.0294 18.5 9 18.5C13.9706 18.5 18 14.4706 18 9.5C18 4.5294 13.9706 0.5 9 0.5Z" fill="#40B3E0"/>
<path d="M13.3793 5.67714L11.7717 13.782C11.7717 13.782 11.5469 14.3441 10.9287 14.0743L7.21912 11.2303L5.87024 10.5783L3.59957 9.81391C3.59957 9.81391 3.2511 9.6903 3.21735 9.42051C3.1836 9.15072 3.61082 9.00461 3.61082 9.00461L12.6373 5.46367C12.6373 5.46367 13.3792 5.13771 13.3792 5.67728" fill="white"/>
<path d="M6.93408 13.6908C6.93408 13.6908 6.8258 13.6807 6.6908 13.2535C6.55601 12.8263 5.87025 10.5781 5.87025 10.5781L11.3221 7.11594C11.3221 7.11594 11.6369 6.92483 11.6257 7.11594C11.6257 7.11594 11.6819 7.14969 11.5132 7.30705C11.3446 7.46448 7.23045 11.1627 7.23045 11.1627" fill="#D2E5F1"/>
<path d="M8.64148 12.3205L7.17427 13.6583C7.17427 13.6583 7.05952 13.7453 6.93408 13.6908L7.21505 11.2059" fill="#B5CFE4"/>
</g>
<defs>
<clipPath id="clip0_2_181">
<rect width="18" height="18" fill="white" transform="translate(0 0.5)"/>
</clipPath>
</defs>
</svg>
