<svg width="36" height="36" viewBox="0 0 36 36" fill="none" xmlns="http://www.w3.org/2000/svg">
<rect width="36" height="36" rx="6" fill="#1C49EA"/>
<path d="M9 17H17V9H9V17ZM11 11H15V15H11V11ZM9 27H17V19H9V27ZM11 21H15V25H11V21ZM19 9V17H27V9H19ZM25 15H21V11H25V15ZM19.01 19H21.01V21H19.01V19ZM21.01 21H23.01V23H21.01V21ZM19.01 23H21.01V25H19.01V23ZM23.01 23H25.01V25H23.01V23ZM25.01 25H27.01V27H25.01V25ZM21.01 25H23.01V27H21.01V25ZM23.01 19H25.01V21H23.01V19ZM25.01 21H27.01V23H25.01V21Z" fill="white"/>
</svg>
