<svg width="94" height="41" viewBox="0 0 94 41" fill="none" xmlns="http://www.w3.org/2000/svg">
<path d="M19.2976 15.9045V25.595M17.0952 13.7021H7.40477M17.0952 27.7974H7.40477M5.20239 15.9045V25.595" stroke="white" stroke-width="1.5"/>
<circle cx="19.2976" cy="13.7024" r="2.20238" stroke="white" stroke-width="1.5"/>
<circle cx="5.20238" cy="13.7024" r="2.20238" stroke="white" stroke-width="1.5"/>
<circle cx="19.2976" cy="27.7976" r="2.20238" stroke="white" stroke-width="1.5"/>
<circle cx="5.20238" cy="27.7976" r="2.20238" stroke="white" stroke-width="1.5"/>
<path d="M41.25 27.4375C41.25 28.0833 41.1198 28.6771 40.8594 29.2188C40.599 29.75 40.2448 30.2083 39.7969 30.5938C39.349 30.9792 38.8281 31.2812 38.2344 31.5C37.651 31.7083 37.0365 31.8125 36.3906 31.8125H35.1094C34.4635 31.8125 33.8438 31.6927 33.25 31.4531C32.6667 31.2031 32.151 30.8646 31.7031 30.4375C31.2656 30.0104 30.9115 29.5104 30.6406 28.9375C30.3802 28.3646 30.25 27.7552 30.25 27.1094V26.4688L32.1719 26.1562V27.2188C32.1719 27.6042 32.25 27.9688 32.4062 28.3125C32.5729 28.6458 32.7917 28.9375 33.0625 29.1875C33.3333 29.4375 33.6458 29.6354 34 29.7812C34.3542 29.9271 34.724 30 35.1094 30H36.3906C36.776 30 37.1458 29.9427 37.5 29.8281C37.8542 29.7135 38.1667 29.5521 38.4375 29.3438C38.7188 29.125 38.9375 28.8646 39.0938 28.5625C39.2604 28.2604 39.3438 27.9167 39.3438 27.5312C39.3438 26.9583 39.2188 26.4896 38.9688 26.125C38.7188 25.7604 38.3854 25.4583 37.9688 25.2188C37.5625 24.9688 37.0938 24.7656 36.5625 24.6094C36.0417 24.4427 35.5052 24.2812 34.9531 24.125C34.401 23.9583 33.8594 23.7708 33.3281 23.5625C32.8073 23.3542 32.3385 23.0833 31.9219 22.75C31.5156 22.4062 31.1875 21.9792 30.9375 21.4688C30.6875 20.9583 30.5625 20.3229 30.5625 19.5625C30.5625 18.9167 30.6875 18.3281 30.9375 17.7969C31.1875 17.2552 31.526 16.7917 31.9531 16.4062C32.3802 16.0208 32.875 15.724 33.4375 15.5156C34.0104 15.2969 34.6198 15.1875 35.2656 15.1875H36.3906C37.0365 15.1875 37.6458 15.3125 38.2188 15.5625C38.7917 15.8021 39.2917 16.1354 39.7188 16.5625C40.1458 16.9896 40.4792 17.4896 40.7188 18.0625C40.9688 18.6354 41.0938 19.2448 41.0938 19.8906V19.9531L39.1719 20.2656V19.7812C39.1719 19.3958 39.099 19.0365 38.9531 18.7031C38.8073 18.3594 38.6094 18.0625 38.3594 17.8125C38.1094 17.5625 37.8125 17.3646 37.4688 17.2188C37.1354 17.0729 36.776 17 36.3906 17H35.2656C34.8802 17 34.5156 17.0573 34.1719 17.1719C33.8385 17.2865 33.5469 17.4531 33.2969 17.6719C33.0469 17.8802 32.849 18.1354 32.7031 18.4375C32.5573 18.7396 32.4844 19.0833 32.4844 19.4688C32.4844 20.0208 32.6094 20.474 32.8594 20.8281C33.1094 21.1719 33.4375 21.4635 33.8438 21.7031C34.2604 21.9427 34.7292 22.1458 35.25 22.3125C35.7812 22.4688 36.3177 22.6354 36.8594 22.8125C37.4115 22.9792 37.9479 23.1719 38.4688 23.3906C39 23.6094 39.4688 23.8906 39.875 24.2344C40.2917 24.5781 40.625 25.0104 40.875 25.5312C41.125 26.0417 41.25 26.6771 41.25 27.4375ZM55.625 27.1094C55.625 27.7552 55.5 28.3646 55.25 28.9375C55.0104 29.5104 54.6771 30.0104 54.25 30.4375C53.8229 30.8646 53.3229 31.2031 52.75 31.4531C52.1771 31.6927 51.5677 31.8125 50.9219 31.8125H49.6406C48.9948 31.8125 48.3854 31.6927 47.8125 31.4531C47.2396 31.2031 46.7396 30.8646 46.3125 30.4375C45.8854 30.0104 45.5469 29.5104 45.2969 28.9375C45.0573 28.3646 44.9375 27.7552 44.9375 27.1094V19.8906C44.9375 19.2448 45.0573 18.6354 45.2969 18.0625C45.5469 17.4896 45.8854 16.9896 46.3125 16.5625C46.7396 16.1354 47.2396 15.8021 47.8125 15.5625C48.3854 15.3125 48.9948 15.1875 49.6406 15.1875H50.9219C51.5677 15.1875 52.1771 15.3125 52.75 15.5625C53.3229 15.8021 53.8229 16.1354 54.25 16.5625C54.6771 16.9896 55.0104 17.4896 55.25 18.0625C55.5 18.6354 55.625 19.2448 55.625 19.8906V20.5312L53.7031 20.8438V19.7812C53.7031 19.3958 53.6302 19.0365 53.4844 18.7031C53.3385 18.3594 53.1406 18.0625 52.8906 17.8125C52.6406 17.5625 52.3438 17.3646 52 17.2188C51.6667 17.0729 51.3073 17 50.9219 17H49.6406C49.2552 17 48.8906 17.0729 48.5469 17.2188C48.2135 17.3646 47.9219 17.5625 47.6719 17.8125C47.4219 18.0625 47.224 18.3594 47.0781 18.7031C46.9323 19.0365 46.8594 19.3958 46.8594 19.7812V27.2188C46.8594 27.6042 46.9323 27.9688 47.0781 28.3125C47.224 28.6458 47.4219 28.9375 47.6719 29.1875C47.9219 29.4375 48.2135 29.6354 48.5469 29.7812C48.8906 29.9271 49.2552 30 49.6406 30H50.9219C51.3073 30 51.6667 29.9271 52 29.7812C52.3438 29.6354 52.6406 29.4375 52.8906 29.1875C53.1406 28.9375 53.3385 28.6458 53.4844 28.3125C53.6302 27.9688 53.7031 27.6042 53.7031 27.2188V26.1562L55.625 26.4688V27.1094ZM69.5156 31.5L68.4531 29.9062C68.0156 30.4792 67.4688 30.9427 66.8125 31.2969C66.1562 31.6406 65.4375 31.8125 64.6562 31.8125H64.1719C63.526 31.8125 62.9167 31.6927 62.3438 31.4531C61.7708 31.2031 61.2708 30.8646 60.8438 30.4375C60.4167 30.0104 60.0781 29.5104 59.8281 28.9375C59.5885 28.3646 59.4688 27.7552 59.4688 27.1094V26.9531C59.4688 26.3073 59.5885 25.6979 59.8281 25.125C60.0781 24.5521 60.4167 24.0521 60.8438 23.625C61.2708 23.1979 61.7708 22.8646 62.3438 22.625C62.9167 22.375 63.526 22.25 64.1719 22.25H68.2344V19.7812C68.2344 19.3958 68.1615 19.0365 68.0156 18.7031C67.8698 18.3594 67.6719 18.0625 67.4219 17.8125C67.1719 17.5625 66.875 17.3646 66.5312 17.2188C66.1979 17.0729 65.8385 17 65.4531 17H64.3281C63.9427 17 63.5781 17.0729 63.2344 17.2188C62.901 17.3646 62.6094 17.5625 62.3594 17.8125C62.1094 18.0625 61.9115 18.3594 61.7656 18.7031C61.6198 19.0365 61.5469 19.3958 61.5469 19.7812V20.3594L59.625 20.0469V19.8906C59.625 19.2448 59.7448 18.6354 59.9844 18.0625C60.2344 17.4896 60.5729 16.9896 61 16.5625C61.4271 16.1354 61.9271 15.8021 62.5 15.5625C63.0729 15.3125 63.6823 15.1875 64.3281 15.1875H65.4531C66.099 15.1875 66.7083 15.3125 67.2812 15.5625C67.8542 15.8021 68.3542 16.1354 68.7812 16.5625C69.2083 16.9896 69.5417 17.4896 69.7812 18.0625C70.0312 18.6354 70.1562 19.2448 70.1562 19.8906V31.5H69.5156ZM68.2344 23.75H64.1719C63.7865 23.75 63.4219 23.8229 63.0781 23.9688C62.7448 24.1146 62.4531 24.3177 62.2031 24.5781C61.9531 24.8281 61.7552 25.125 61.6094 25.4688C61.4635 25.8021 61.3906 26.1615 61.3906 26.5469V27.2188C61.3906 27.6042 61.4635 27.9688 61.6094 28.3125C61.7552 28.6458 61.9531 28.9375 62.2031 29.1875C62.4531 29.4375 62.7448 29.6354 63.0781 29.7812C63.4219 29.9271 63.7865 30 64.1719 30H65.4531C65.8385 30 66.1979 29.9271 66.5312 29.7812C66.875 29.6354 67.1719 29.4375 67.4219 29.1875C67.6719 28.9375 67.8698 28.6458 68.0156 28.3125C68.1615 27.9688 68.2344 27.6042 68.2344 27.2188V23.75ZM74.6406 31.5V9.09375H76.5625V31.5H74.6406ZM91.75 27.1094C91.75 27.7552 91.625 28.3646 91.375 28.9375C91.1354 29.5104 90.8021 30.0104 90.375 30.4375C89.9479 30.8646 89.4479 31.2031 88.875 31.4531C88.3021 31.6927 87.6927 31.8125 87.0469 31.8125H85.7656C85.1198 31.8125 84.5104 31.6927 83.9375 31.4531C83.3646 31.2031 82.8646 30.8646 82.4375 30.4375C82.0104 30.0104 81.6719 29.5104 81.4219 28.9375C81.1823 28.3646 81.0625 27.7552 81.0625 27.1094V19.8906C81.0625 19.2448 81.1823 18.6354 81.4219 18.0625C81.6719 17.4896 82.0104 16.9896 82.4375 16.5625C82.8646 16.1354 83.3646 15.8021 83.9375 15.5625C84.5104 15.3125 85.1198 15.1875 85.7656 15.1875H87.0469C87.6927 15.1875 88.3021 15.3125 88.875 15.5625C89.4479 15.8021 89.9479 16.1354 90.375 16.5625C90.8021 16.9896 91.1354 17.4896 91.375 18.0625C91.625 18.6354 91.75 19.2448 91.75 19.8906V23.6562H82.9844V27.2188C82.9844 27.6042 83.0573 27.9688 83.2031 28.3125C83.349 28.6458 83.5469 28.9375 83.7969 29.1875C84.0469 29.4375 84.3385 29.6354 84.6719 29.7812C85.0156 29.9271 85.3802 30 85.7656 30H87.0469C87.4323 30 87.7917 29.9271 88.125 29.7812C88.4688 29.6354 88.7656 29.4375 89.0156 29.1875C89.2656 28.9375 89.4635 28.6458 89.6094 28.3125C89.7552 27.9688 89.8281 27.6042 89.8281 27.2188V26.1562L91.75 26.4688V27.1094ZM89.8281 19.7812C89.8281 19.3958 89.7552 19.0365 89.6094 18.7031C89.4635 18.3594 89.2656 18.0625 89.0156 17.8125C88.7656 17.5625 88.4688 17.3646 88.125 17.2188C87.7917 17.0729 87.4323 17 87.0469 17H85.7656C85.3802 17 85.0156 17.0729 84.6719 17.2188C84.3385 17.3646 84.0469 17.5625 83.7969 17.8125C83.5469 18.0625 83.349 18.3594 83.2031 18.7031C83.0573 19.0365 82.9844 19.3958 82.9844 19.7812V22.1562H89.8281V19.7812Z" fill="white"/>
</svg>
